<mxfile host="app.diagrams.net" modified="2021-09-13T16:16:59.103Z" agent="5.0 (Windows)" etag="S18mBBBROfYSj_0rHH1L" version="15.1.0" type="github">
  <diagram id="zz0mKOecC72sVzWUUMJu" name="Page-1">
    <mxGraphModel dx="1662" dy="744" grid="1" gridSize="10" guides="1" tooltips="1" connect="1" arrows="1" fold="1" page="1" pageScale="1" pageWidth="850" pageHeight="1100" math="0" shadow="0">
      <root>
        <mxCell id="0" />
        <mxCell id="1" parent="0" />
        <mxCell id="0J8yw136S-XIh5V0hXsa-1" value="Deposit Money" style="rounded=0;whiteSpace=wrap;html=1;" parent="1" vertex="1">
          <mxGeometry x="200" y="210" width="120" height="30" as="geometry" />
        </mxCell>
        <mxCell id="0J8yw136S-XIh5V0hXsa-2" value="Enter Amount" style="rounded=0;whiteSpace=wrap;html=1;" parent="1" vertex="1">
          <mxGeometry x="200" y="260" width="120" height="30" as="geometry" />
        </mxCell>
        <mxCell id="0J8yw136S-XIh5V0hXsa-3" value="Send Money" style="rounded=0;whiteSpace=wrap;html=1;" parent="1" vertex="1">
          <mxGeometry x="200" y="310" width="120" height="30" as="geometry" />
        </mxCell>
        <mxCell id="0J8yw136S-XIh5V0hXsa-4" value="Authorization" style="rounded=0;whiteSpace=wrap;html=1;" parent="1" vertex="1">
          <mxGeometry x="200" y="360" width="120" height="30" as="geometry" />
        </mxCell>
        <mxCell id="0J8yw136S-XIh5V0hXsa-5" value="Transaction" style="rounded=0;whiteSpace=wrap;html=1;" parent="1" vertex="1">
          <mxGeometry x="200" y="410" width="120" height="30" as="geometry" />
        </mxCell>
        <mxCell id="0J8yw136S-XIh5V0hXsa-6" value="Transaction" style="rounded=0;whiteSpace=wrap;html=1;" parent="1" vertex="1">
          <mxGeometry x="350" y="410" width="120" height="30" as="geometry" />
        </mxCell>
        <mxCell id="0J8yw136S-XIh5V0hXsa-7" value="Transaction" style="rounded=0;whiteSpace=wrap;html=1;" parent="1" vertex="1">
          <mxGeometry x="500" y="410" width="120" height="30" as="geometry" />
        </mxCell>
        <mxCell id="0J8yw136S-XIh5V0hXsa-9" value="Withdraw (Queries)" style="rounded=0;whiteSpace=wrap;html=1;" parent="1" vertex="1">
          <mxGeometry x="650" y="210" width="120" height="30" as="geometry" />
        </mxCell>
        <mxCell id="0J8yw136S-XIh5V0hXsa-10" value="Enter PIN" style="rounded=0;whiteSpace=wrap;html=1;" parent="1" vertex="1">
          <mxGeometry x="650" y="260" width="120" height="30" as="geometry" />
        </mxCell>
        <mxCell id="0J8yw136S-XIh5V0hXsa-11" value="Receive" style="rounded=0;whiteSpace=wrap;html=1;" parent="1" vertex="1">
          <mxGeometry x="650" y="310" width="120" height="30" as="geometry" />
        </mxCell>
        <mxCell id="0J8yw136S-XIh5V0hXsa-12" value="Verification" style="rounded=0;whiteSpace=wrap;html=1;" parent="1" vertex="1">
          <mxGeometry x="650" y="360" width="120" height="30" as="geometry" />
        </mxCell>
        <mxCell id="0J8yw136S-XIh5V0hXsa-13" value="Transaction" style="rounded=0;whiteSpace=wrap;html=1;" parent="1" vertex="1">
          <mxGeometry x="650" y="410" width="120" height="30" as="geometry" />
        </mxCell>
        <mxCell id="bA8An_JRPriIsfmKXxRp-1" value="Money Wiring" style="text;html=1;strokeColor=none;fillColor=none;align=center;verticalAlign=middle;whiteSpace=wrap;rounded=0;" vertex="1" parent="1">
          <mxGeometry x="440" y="470" width="90" height="20" as="geometry" />
        </mxCell>
        <mxCell id="bA8An_JRPriIsfmKXxRp-2" value="Destination Bank (Withdrawer&#39;s)" style="text;html=1;strokeColor=none;fillColor=none;align=center;verticalAlign=middle;whiteSpace=wrap;rounded=0;" vertex="1" parent="1">
          <mxGeometry x="660" y="470" width="100" height="20" as="geometry" />
        </mxCell>
        <mxCell id="bA8An_JRPriIsfmKXxRp-4" value="&lt;font style=&quot;font-size: 14px&quot;&gt;&lt;u&gt;&lt;b&gt;B Sudharshan - CB.EN.U4CSE19008 - CSE A&lt;/b&gt;&lt;/u&gt;&lt;/font&gt;" style="text;html=1;strokeColor=none;fillColor=none;align=center;verticalAlign=middle;whiteSpace=wrap;rounded=0;" vertex="1" parent="1">
          <mxGeometry x="310" y="150" width="330" height="20" as="geometry" />
        </mxCell>
        <mxCell id="bA8An_JRPriIsfmKXxRp-5" value="Money Source (Depositor&#39;s Bank)" style="text;html=1;strokeColor=none;fillColor=none;align=center;verticalAlign=middle;whiteSpace=wrap;rounded=0;" vertex="1" parent="1">
          <mxGeometry x="210" y="470" width="130" height="40" as="geometry" />
        </mxCell>
        <mxCell id="bA8An_JRPriIsfmKXxRp-6" value="Approval" style="text;html=1;strokeColor=none;fillColor=none;align=center;verticalAlign=middle;whiteSpace=wrap;rounded=0;" vertex="1" parent="1">
          <mxGeometry x="50" y="355" width="130" height="40" as="geometry" />
        </mxCell>
        <mxCell id="bA8An_JRPriIsfmKXxRp-7" value="Routing" style="text;html=1;strokeColor=none;fillColor=none;align=center;verticalAlign=middle;whiteSpace=wrap;rounded=0;" vertex="1" parent="1">
          <mxGeometry x="48" y="405" width="130" height="40" as="geometry" />
        </mxCell>
        <mxCell id="bA8An_JRPriIsfmKXxRp-8" value="Transaction" style="text;html=1;strokeColor=none;fillColor=none;align=center;verticalAlign=middle;whiteSpace=wrap;rounded=0;" vertex="1" parent="1">
          <mxGeometry x="50" y="305" width="130" height="40" as="geometry" />
        </mxCell>
        <mxCell id="bA8An_JRPriIsfmKXxRp-9" value="Security" style="text;html=1;strokeColor=none;fillColor=none;align=center;verticalAlign=middle;whiteSpace=wrap;rounded=0;" vertex="1" parent="1">
          <mxGeometry x="50" y="255" width="130" height="40" as="geometry" />
        </mxCell>
        <mxCell id="bA8An_JRPriIsfmKXxRp-10" value="Money" style="text;html=1;strokeColor=none;fillColor=none;align=center;verticalAlign=middle;whiteSpace=wrap;rounded=0;" vertex="1" parent="1">
          <mxGeometry x="50" y="205" width="130" height="40" as="geometry" />
        </mxCell>
      </root>
    </mxGraphModel>
  </diagram>
</mxfile>
